<?xml version="1.0" encoding="UTF-8"?><svg id="Layer_1" xmlns="http://www.w3.org/2000/svg" viewBox="0 0 560 420"><defs><style>.cls-1{fill:#ffde83;}.cls-2,.cls-3,.cls-4,.cls-5,.cls-6,.cls-7,.cls-8{fill:#fff;}.cls-9,.cls-10,.cls-11{fill:#e5e5e5;}.cls-12{fill:#a2ecc2;}.cls-13,.cls-14,.cls-15{fill:#3a3836;}.cls-10,.cls-16,.cls-3,.cls-4,.cls-17,.cls-14,.cls-11,.cls-5,.cls-18,.cls-6,.cls-19,.cls-7,.cls-20,.cls-8,.cls-15{stroke:#3a3836;}.cls-10,.cls-16,.cls-3,.cls-4,.cls-17,.cls-14,.cls-11,.cls-5,.cls-18,.cls-21,.cls-19,.cls-7,.cls-20{stroke-width:2px;}.cls-10,.cls-16,.cls-3,.cls-4,.cls-14,.cls-7,.cls-20,.cls-8,.cls-15{stroke-miterlimit:10;}.cls-16,.cls-18{fill:#ff8043;}.cls-4,.cls-17,.cls-11,.cls-5,.cls-18,.cls-6,.cls-21,.cls-19{stroke-linecap:round;}.cls-17{fill:#d1dafa;}.cls-17,.cls-11,.cls-5,.cls-18,.cls-6,.cls-21,.cls-19{stroke-linejoin:round;}.cls-6{stroke-width:1.58px;}.cls-21{stroke:#e5e5e5;stroke-dasharray:0 12.37;}.cls-21,.cls-19,.cls-20{fill:none;}.cls-7{opacity:.5;}.cls-8,.cls-15{stroke-width:1.5px;}</style></defs><g id="Artwork"><g id="Horizon"><line class="cls-4" x1="453.18" y1="370.48" x2="195.44" y2="370.48"/><line class="cls-4" x1="183.04" y1="370.48" x2="127.85" y2="370.48"/></g><g><g><path class="cls-2" d="M328.27,361.03l-9.76-45.31h-56.51l-9.76,45.31h-2c-2.44,.01-4.77,.99-6.47,2.72-1.72,1.73-2.67,4.07-2.66,6.5h98.84c.01-2.43-.94-4.77-2.66-6.5-1.71-1.73-4.04-2.71-6.47-2.72h-2.55Z"/><path class="cls-9" d="M321.54,333.34l-3.97-16.46h-53.4l57.37,16.46Z"/><path class="cls-19" d="M328.27,361.03l-9.76-45.31h-56.51l-9.76,45.31h-2c-2.44,.01-4.77,.99-6.47,2.72-1.72,1.73-2.67,4.07-2.66,6.5h98.84c.01-2.43-.94-4.77-2.66-6.5-1.71-1.73-4.04-2.71-6.47-2.72h-2.55Z"/><path class="cls-3" d="M483.35,88.67v217.19c-.06,2.76-1.22,5.39-3.22,7.3-1.99,1.91-4.67,2.96-7.44,2.9H108.34c-2.77,.05-5.45-.99-7.44-2.91-2-1.91-3.16-4.54-3.22-7.3V88.67H483.35Z"/><path class="cls-14" d="M483.36,81.14v7.62H97.72l-.04-7.69c-.01-1.4,.26-2.79,.79-4.09,.53-1.3,1.31-2.48,2.3-3.48,.98-1,2.16-1.79,3.45-2.33,1.3-.54,2.68-.83,4.09-.83l364.41,.07c1.41,0,2.79,.29,4.09,.83,1.29,.54,2.46,1.34,3.45,2.33,.99,1,1.78,2.18,2.3,3.48,.53,1.3,.8,2.69,.79,4.09h0Z"/><g id="Dots"><path class="cls-2" d="M111.21,83.89c.74,.01,1.47-.2,2.09-.6,.62-.4,1.11-.99,1.41-1.67,.29-.68,.37-1.44,.23-2.17-.14-.73-.5-1.4-1.01-1.93s-1.18-.89-1.91-1.04c-.73-.15-1.48-.08-2.17,.2-.69,.28-1.28,.76-1.69,1.38-.41,.62-.63,1.34-.63,2.08-.01,.99,.38,1.93,1.07,2.63,.7,.7,1.64,1.1,2.62,1.11Z"/><path class="cls-2" d="M122.69,83.89c.74,0,1.47-.2,2.09-.61,.61-.41,1.1-.99,1.4-1.67,.29-.68,.37-1.44,.23-2.17-.15-.73-.5-1.4-1.01-1.93-.53-.53-1.19-.89-1.91-1.04-.73-.15-1.49-.08-2.18,.21-.68,.28-1.27,.76-1.68,1.38-.41,.62-.63,1.34-.63,2.08,0,.99,.38,1.93,1.08,2.63,.7,.7,1.64,1.1,2.62,1.11Z"/><path class="cls-2" d="M134.16,83.89c.74,.01,1.47-.2,2.09-.6,.62-.4,1.11-.99,1.41-1.67,.29-.68,.37-1.44,.23-2.17s-.5-1.4-1.01-1.93c-.52-.53-1.18-.89-1.91-1.04-.73-.15-1.48-.08-2.17,.2-.69,.28-1.28,.76-1.69,1.38-.41,.62-.63,1.34-.63,2.08-.01,.99,.38,1.93,1.07,2.63,.7,.7,1.64,1.1,2.62,1.11Z"/></g></g><g><path class="cls-9" d="M122.29,111.64h32.61v181.89h-32.61c-2.96,0-5.36-2.4-5.36-5.36V117c0-2.96,2.4-5.36,5.36-5.36Z"/><path class="cls-20" d="M122.02,111.64h186.74c3.04,0,5.5,2.12,5.5,4.73v172.73c0,2.61-2.46,4.73-5.5,4.73H122.02c-3.04,0-5.5-2.12-5.5-4.73V116.38c0-2.61,2.46-4.73,5.5-4.73Z"/><path class="cls-21" d="M173.78,137.88h121.47c1.91,0,3.46,1.55,3.46,3.46v126.26c0,1.91-1.55,3.46-3.46,3.46h-121.47c-1.91,0-3.46-1.55-3.46-3.46v-126.26c0-1.91,1.55-3.46,3.46-3.46Z"/><g><line class="cls-20" x1="154.61" y1="112.14" x2="154.61" y2="292.85"/><line class="cls-20" x1="153.62" y1="252.75" x2="116.49" y2="252.75"/><line class="cls-20" x1="153.62" y1="207.69" x2="116.49" y2="207.69"/><line class="cls-20" x1="153.62" y1="156.2" x2="116.49" y2="156.2"/></g></g><g><path class="cls-3" d="M334.46,111.24h125.14c2.45,0,4.44,1.62,4.44,3.63v45.41c0,2-1.99,3.63-4.44,3.63h-125.14c-2.45,0-4.44-1.62-4.44-3.63v-45.41c0-2,1.99-3.63,4.44-3.63Z"/><g><rect class="cls-1" x="341.38" y="121.68" width="86.36" height="6.41" rx="3.2" ry="3.2"/><rect class="cls-1" x="341.38" y="135.2" width="98.8" height="6.41" rx="3.2" ry="3.2"/><rect class="cls-1" x="341.38" y="148.55" width="82.11" height="6.41" rx="3.2" ry="3.2"/></g></g><path class="cls-3" d="M335.36,180.87h125.26c2.18,0,3.95,1.31,3.95,2.93v107.1c0,1.62-1.77,2.93-3.95,2.93h-125.26c-2.18,0-3.95-1.31-3.95-2.93v-107.1c0-1.62,1.77-2.93,3.95-2.93Z"/></g><path class="cls-16" d="M74.72,108.54c-.04-.07-.1-.14-.17-.19-.07-.05-.15-.08-.23-.09-.09,0-.17,0-.26,.03-.08,.03-.15,.08-.21,.15l-3.75,4.27-3.65-3.19,3.75-4.27c.06-.07,.09-.14,.11-.23,.02-.08,.02-.17,0-.26-.02-.08-.06-.16-.12-.22-.06-.06-.13-.11-.21-.15-1.17-.44-2.43-.63-3.68-.54-1.17,.07-2.3,.38-3.35,.89-1.05,.52-1.98,1.24-2.75,2.11-1.06,1.2-1.77,2.66-2.06,4.23-.29,1.57-.15,3.19,.41,4.69l-15.28,17.42c-1.56-.35-3.19-.27-4.71,.23-1.52,.5-2.87,1.4-3.92,2.61-1.55,1.77-2.33,4.08-2.18,6.43,.15,2.35,1.23,4.54,3,6.09,.88,.77,1.9,1.36,3,1.73,1.1,.37,2.27,.53,3.44,.45,1.16-.08,2.3-.38,3.34-.9,1.05-.52,1.98-1.23,2.74-2.11,1.05-1.2,1.77-2.66,2.06-4.23,.29-1.57,.15-3.19-.41-4.69l15.28-17.43c1.56,.35,3.19,.27,4.71-.23,1.51-.5,2.87-1.4,3.92-2.61,1.18-1.36,1.93-3.04,2.13-4.82,.21-1.79-.14-3.59-.97-5.18Zm-32.04,36.67l-3.66-.47-1.42-3.41,2.24-2.93,3.66,.47,1.42,3.41-2.24,2.93Z"/><g><path class="cls-16" d="M66.86,267.79l11.2,6.91c.86,.51,1.89,.67,2.87,.43,.98-.24,1.82-.85,2.35-1.7,.51-.86,.67-1.89,.43-2.87-.24-.97-.85-1.82-1.7-2.34l-10.67-6.59"/><path class="cls-16" d="M71.43,249.71c-2.9-10.02-13.37-15.8-23.39-12.91-10.02,2.9-15.8,13.37-12.91,23.39,2.9,10.02,13.37,15.8,23.39,12.91,10.02-2.9,15.8-13.37,12.91-23.39Zm-14.25,18.75c-7.46,2.16-15.25-2.15-17.41-9.6-2.16-7.46,2.15-15.25,9.6-17.41,7.46-2.16,15.25,2.15,17.41,9.6,2.16,7.46-2.15,15.25-9.6,17.41Z"/><circle class="cls-7" cx="53.28" cy="254.95" r="14.06" transform="translate(-153.8 96.96) rotate(-40.85)"/></g><g><path class="cls-2" d="M526.81,71.31l-22.12,37.61,11.6,6.82,22.13-37.64"/><path class="cls-3" d="M516.06,116.27l-13.94,10.02,2.23-16.91"/><path class="cls-16" d="M526.82,71.29l-22.13,37.63,11.6,6.82,22.14-37.64-11.6-6.81Z"/><path class="cls-20" d="M510.49,112.58l22.14-37.64"/><path class="cls-13" d="M508.49,121.76l-5.32-3.13-1.05,7.67,6.37-4.54Z"/></g><g><path class="cls-18" d="M494.69,290.94l8.45-6.9,14,17.14c.92,1.12,1.35,2.56,1.21,4.01-.15,1.44-.86,2.77-1.99,3.69-1.12,.92-2.56,1.35-4.01,1.21-1.44-.15-2.77-.86-3.69-1.99l-14-17.14,.03-.03Z"/><path class="cls-18" d="M499.4,276.13l-11.6,9.54,6.42,7.81,11.59-9.53-6.42-7.82Z"/><path class="cls-11" d="M476.99,255.65l-4.83,3.97,3.95,9.78,2.59-2.13,12.7,15.46,4.51-3.7-12.69-15.45,2.63-2.16-8.84-5.76Z"/></g><g><path class="cls-16" d="M169.36,210.84s-18.85,22.39-25.31,30.04c-1.16,1.38-4.05,3.55-7.7,.31s-1.82-6.36-.59-7.68c6.85-7.31,26.89-28.64,26.89-28.64"/><path class="cls-10" d="M163.93,196.92l-1.81,6.52,8.79,7.82,4.75-2.85,4.02,3.57-1.4,2.95,4.75,4.22,9.97-11.21-4.75-4.22-2.77,1.73-4.02-3.57,2.28-5.05-8.79-7.82-4.4,2.46s-10.81-11.41-23.11,1.24c0,0,5.74-.39,9.68,.49,4.24,.94,6.8,3.72,6.8,3.72Z"/></g><g id="Stars"><path class="cls-3" d="M490.85,350.5l8.9,2.91-8.9,2.9-2.9,8.9-2.91-8.9-8.9-2.9,8.9-2.91,2.91-8.9,2.9,8.9Z"/><path class="cls-15" d="M161.71,43.5l4.27,1.4-4.27,1.39-1.39,4.27-1.4-4.27-4.27-1.39,4.27-1.4,1.4-4.27,1.39,4.27Z"/><path class="cls-5" d="M363.66,49.82c1.74,1.74,4.57,1.74,6.32,0s1.74-4.57,0-6.32-4.57-1.74-6.32,0-1.74,4.57,0,6.32Z"/><path class="cls-15" d="M497.76,32.65l4.27,1.4-4.27,1.39-1.39,4.27-1.4-4.27-4.27-1.39,4.27-1.4,1.4-4.27,1.39,4.27Z"/><path class="cls-8" d="M416.08,342.57l-5.27-1.73,5.27-1.72,1.72-5.27,1.73,5.27,5.27,1.72-5.27,1.73-1.73,5.27-1.72-5.27Z"/><path class="cls-6" d="M146.15,338.36c-.92-.92-2.42-.92-3.35,0s-.92,2.42,0,3.35,2.42,.92,3.35,0,.92-2.42,0-3.35Z"/><path class="cls-8" d="M88.33,338.95l4.27,1.4-4.27,1.39-1.39,4.27-1.4-4.27-4.27-1.39,4.27-1.4,1.4-4.27,1.39,4.27Z"/><path class="cls-5" d="M49.13,330.39c1.38,1.38,3.63,1.38,5.01,0s1.38-3.63,0-5.01-3.63-1.38-5.01,0-1.38,3.63,0,5.01Z"/></g></g><polygon class="cls-1" points="447.87 200.97 348.65 200.97 348.65 234.67 425.27 234.67 447.79 252.18 447.79 234.67 447.87 234.67 447.87 200.97"/><polygon class="cls-20" points="447.87 200.97 348.65 200.97 348.65 234.67 425.27 234.67 447.79 252.18 447.79 234.67 447.87 234.67 447.87 200.97"/><line class="cls-18" x1="363.59" y1="213.56" x2="429.01" y2="213.56"/><rect class="cls-17" x="350.08" y="249.2" width="71.5" height="7.53"/><rect class="cls-17" x="350.08" y="267.2" width="71.5" height="7.53"/><polygon class="cls-2" points="208.59 370.47 169.91 370.47 163.91 338.85 215.59 338.85 208.59 370.47"/><path class="cls-12" d="M173.92,338.09c-3.08-3.63-4.94-8.33-4.94-13.46,0-11.49,9.32-20.81,20.81-20.81s20.81,9.32,20.81,20.81c0,4.75-1.59,10.13-4.27,13.63"/><polygon class="cls-19" points="209.66 370.47 168.91 370.47 163.91 338.85 215.66 338.85 209.66 370.47"/><line class="cls-19" x1="209.46" y1="328.47" x2="210.59" y2="328.47"/><line class="cls-19" x1="201.74" y1="322.44" x2="202.87" y2="322.44"/><line class="cls-19" x1="200.74" y1="332.44" x2="201.87" y2="332.44"/><line class="cls-19" x1="205.74" y1="312.44" x2="206.87" y2="312.44"/><line class="cls-19" x1="195.74" y1="312.44" x2="196.87" y2="312.44"/><line class="cls-19" x1="185.74" y1="327.44" x2="186.87" y2="327.44"/><line class="cls-19" x1="175.74" y1="333.44" x2="176.87" y2="333.44"/><line class="cls-19" x1="168.74" y1="323.44" x2="169.87" y2="323.44"/><line class="cls-19" x1="171.74" y1="313.44" x2="172.87" y2="313.44"/><line class="cls-19" x1="181.74" y1="318.44" x2="182.87" y2="318.44"/><line class="cls-19" x1="181.74" y1="305.44" x2="182.87" y2="305.44"/><line class="cls-19" x1="197.74" y1="305.44" x2="198.87" y2="305.44"/><line class="cls-19" x1="166.41" y1="354.66" x2="212.93" y2="354.66"/></svg>